{"buffers":[{"uri":"output.bin","byteLength":778232}],"asset":{"version":"2.0","generator":"gltfpack 0.20","extras":{"author":"ridho.mnf (https://sketchfab.com/ridho.mnf)","license":"CC-BY-4.0 (http://creativecommons.org/licenses/by/4.0/)","source":"https://sketchfab.com/3d-models/cute-girl-character-bba356a4e5d348e7839cc9caefac67da","title":"Cute Girl Character"}},"extensionsUsed":["KHR_mesh_quantization","KHR_texture_transform"],"extensionsRequired":["KHR_mesh_quantization"],"bufferViews":[{"buffer":0,"byteOffset":0,"byteLength":129092,"byteStride":4,"target":34962},{"buffer":0,"byteOffset":129092,"byteLength":258184,"byteStride":8,"target":34962},{"buffer":0,"byteOffset":387276,"byteLength":129092,"byteStride":4,"target":34962},{"buffer":0,"byteOffset":516368,"byteLength":261864,"target":34963}],"accessors":[{"bufferView":0,"byteOffset":0,"componentType":5120,"count":19515,"type":"VEC3","normalized":true},{"bufferView":1,"byteOffset":0,"componentType":5123,"count":19515,"type":"VEC3","min":[0,0,0],"max":[5065,14318,4596]},{"bufferView":2,"byteOffset":0,"componentType":5123,"count":19515,"type":"VEC2","normalized":true},{"bufferView":3,"byteOffset":0,"componentType":5123,"count":77808,"type":"SCALAR"},{"bufferView":0,"byteOffset":78060,"componentType":5120,"count":12758,"type":"VEC3","normalized":true},{"bufferView":1,"byteOffset":156120,"componentType":5123,"count":12758,"type":"VEC3","min":[1270,12408,1651],"max":[3808,16383,4014]},{"bufferView":2,"byteOffset":78060,"componentType":5123,"count":12758,"type":"VEC2","normalized":true},{"bufferView":3,"byteOffset":155616,"componentType":5123,"count":53124,"type":"SCALAR"}],"samplers":[{"magFilter":9729,"minFilter":9987}],"images":[{"uri":"Body_baseColor.png"},{"uri":"Head_baseColor.png"}],"textures":[{"sampler":0,"source":0},{"sampler":0,"source":1}],"materials":[{"name":"Body","pbrMetallicRoughness":{"baseColorTexture":{"index":0,"extensions":{"KHR_texture_transform":{"offset":[0.00207400322,0.00207400322],"scale":[15.9372625,15.9372778]}}},"metallicFactor":0,"roughnessFactor":0.82111454},"doubleSided":true},{"name":"Head","pbrMetallicRoughness":{"baseColorTexture":{"index":1,"extensions":{"KHR_texture_transform":{"offset":[0.00211930275,0.00211930275],"scale":[15.9358292,15.8708563]}}},"metallicFactor":0,"roughnessFactor":0.82111454},"doubleSided":true}],"meshes":[{"primitives":[{"attributes":{"NORMAL":0,"POSITION":1,"TEXCOORD_0":2},"indices":3,"material":0},{"attributes":{"NORMAL":4,"POSITION":5,"TEXCOORD_0":6},"indices":7,"material":1}]}],"nodes":[{"mesh":0,"translation":[-0.982097745,0.0162960123,-0.910480082],"scale":[0.000392060261,0.000392060261,0.000392060261]}],"scenes":[{"name":"Sketchfab_Scene","nodes":[0]}],"scene":0}